<mxfile host="app.diagrams.net" modified="2024-04-06T08:38:14.593Z" agent="Mozilla/5.0 (Windows NT 10.0; Win64; x64) AppleWebKit/537.36 (KHTML, like Gecko) Chrome/123.0.0.0 Safari/537.36" etag="DlCbHPA34DEtW8vYh5Lp" version="24.2.2" type="device">
  <diagram name="Page-1" id="ULJwnWSSJ8EI9ppJyhu3">
    <mxGraphModel dx="1909" dy="1027" grid="1" gridSize="10" guides="1" tooltips="1" connect="1" arrows="1" fold="1" page="1" pageScale="1" pageWidth="1169" pageHeight="827" math="0" shadow="0">
      <root>
        <mxCell id="0" />
        <mxCell id="1" parent="0" />
        <mxCell id="b7c-0g8DGP1zz50O355w-1" value="" style="rounded=0;whiteSpace=wrap;html=1;" vertex="1" parent="1">
          <mxGeometry x="127" y="93" width="915" height="594" as="geometry" />
        </mxCell>
        <mxCell id="vR3ZsyyjOIx7t2owQdFN-2" value="" style="rounded=0;whiteSpace=wrap;html=1;" parent="1" vertex="1">
          <mxGeometry x="417.5" y="260" width="335" height="260" as="geometry" />
        </mxCell>
        <mxCell id="vR3ZsyyjOIx7t2owQdFN-3" value="&lt;font style=&quot;font-size: 27px;&quot;&gt;Текст&lt;/font&gt;" style="text;html=1;align=center;verticalAlign=middle;whiteSpace=wrap;rounded=0;" parent="1" vertex="1">
          <mxGeometry x="555" y="280" width="60" height="30" as="geometry" />
        </mxCell>
        <mxCell id="vR3ZsyyjOIx7t2owQdFN-4" value="Текст" style="text;html=1;align=center;verticalAlign=middle;whiteSpace=wrap;rounded=0;" parent="1" vertex="1">
          <mxGeometry x="417.5" y="320" width="60" height="30" as="geometry" />
        </mxCell>
        <mxCell id="vR3ZsyyjOIx7t2owQdFN-5" value="Поле для вводу" style="rounded=0;whiteSpace=wrap;html=1;align=left;" parent="1" vertex="1">
          <mxGeometry x="430" y="350" width="310" height="25" as="geometry" />
        </mxCell>
        <mxCell id="vR3ZsyyjOIx7t2owQdFN-6" value="Кнопка" style="rounded=1;whiteSpace=wrap;html=1;" parent="1" vertex="1">
          <mxGeometry x="430" y="460" width="240" height="38" as="geometry" />
        </mxCell>
        <mxCell id="vR3ZsyyjOIx7t2owQdFN-7" value="Текст" style="text;html=1;align=center;verticalAlign=middle;whiteSpace=wrap;rounded=0;" parent="1" vertex="1">
          <mxGeometry x="417.5" y="386" width="60" height="30" as="geometry" />
        </mxCell>
        <mxCell id="vR3ZsyyjOIx7t2owQdFN-8" value="&lt;span style=&quot;text-align: center;&quot;&gt;Поле для вводу&lt;/span&gt;" style="rounded=0;whiteSpace=wrap;html=1;align=left;" parent="1" vertex="1">
          <mxGeometry x="430" y="416" width="310" height="25" as="geometry" />
        </mxCell>
        <mxCell id="vR3ZsyyjOIx7t2owQdFN-11" value="Текст з посиланням" style="text;html=1;align=center;verticalAlign=middle;whiteSpace=wrap;rounded=0;" parent="1" vertex="1">
          <mxGeometry x="680" y="464" width="60" height="30" as="geometry" />
        </mxCell>
      </root>
    </mxGraphModel>
  </diagram>
</mxfile>
